<?xml version="1.0" encoding="UTF-8" standalone="no"?>
<!DOCTYPE svg PUBLIC "-//W3C//DTD SVG 1.1//EN" "http://www.w3.org/Graphics/SVG/1.1/DTD/svg11.dtd">
<svg width="100%" height="100%" viewBox="0 0 72 73" version="1.1" xmlns="http://www.w3.org/2000/svg" xmlns:xlink="http://www.w3.org/1999/xlink" xml:space="preserve" xmlns:serif="http://www.serif.com/" style="fill-rule:evenodd;clip-rule:evenodd;stroke-linejoin:round;stroke-miterlimit:1.41421;">
    <g transform="matrix(1,0,0,1,0,-73)">
        <g id="heart_normal" transform="matrix(0.911392,0,0,1.30909,41.0127,76.3866)">
            <rect x="-45" y="-2" width="79" height="55" style="fill:none;"/>
            <clipPath id="_clip1">
                <rect x="-45" y="-2" width="79" height="55"/>
            </clipPath>
            <g clip-path="url(#_clip1)">
                <g transform="matrix(1.10039,0,0,0.765537,-45.1142,-2.11863)">
                    <path d="M36,72C36,65.999 24.25,56.029 20.135,53.028C1.023,39.089 -0.085,30.326 0.124,25.224C0.765,9.575 10.639,0.066 18.84,0.156C29.828,0.275 36,7.621 36,9.305C36,7.621 42.172,0.275 53.16,0.156C61.361,0.066 71.235,9.575 71.876,25.224C72.085,30.326 70.977,39.089 51.865,53.028C47.75,56.029 36,65.999 36,72Z" style="fill:rgb(235,235,235);"/>
                </g>
                <g transform="matrix(1.02981,0,0,0.716449,-42.5853,-0.287068)">
                    <path d="M19.149,-2.317C25.439,-2.151 31.688,0.254 35.933,4.655C35.933,4.655 36.332,4.375 36.731,3.995C41.714,-0.667 48.942,-3.279 55.63,-2.115C66.977,-0.141 73.976,13.078 74.359,25.389C74.648,34.665 67.881,42.723 61.547,48.421C60.379,49.471 59.181,50.487 57.961,51.474C51.151,56.984 42.997,61.643 39.098,69.839C38.632,70.819 38.46,72.276 38.46,72.276C38.323,73.107 38.151,73.315 37.833,73.665C36.474,75.163 33.707,74.182 33.515,71.787C33.299,69.497 31.641,67.521 30.015,65.557C21.353,55.092 7.939,49.259 0.877,37.286C-5.628,26.256 -1.849,9.768 8.315,1.679C11.374,-0.755 15.207,-2.38 19.149,-2.317ZM18.665,2.632C6.785,2.774 -0.531,21.57 3.766,32.027C9.638,46.319 27.91,53.24 35.938,65.212C35.938,65.212 38.168,62.283 40.097,60.212C48.645,51.03 60.733,45.376 66.973,34.572C72.137,25.632 68.895,11.825 60.275,5.302C54.13,0.652 43.606,2.753 38.905,8.938C37.353,10.98 37.452,12.048 35.607,11.751C34.323,11.544 33.531,9.603 33.522,9.585C31.131,5.037 24.296,2.617 18.665,2.632ZM33.526,9.397C33.544,9.622 33.524,9.332 33.526,9.397ZM38.464,9.506C38.496,9.254 38.471,9.414 38.464,9.506Z" style="fill:rgb(128,128,128);fill-rule:nonzero;"/>
                </g>
            </g>
        </g>
    </g>
</svg>
