<?xml version="1.0" encoding="UTF-8" standalone="no"?>
<!DOCTYPE svg PUBLIC "-//W3C//DTD SVG 1.1//EN" "http://www.w3.org/Graphics/SVG/1.1/DTD/svg11.dtd">
<svg width="100%" height="100%" viewBox="0 0 72 73" version="1.1" xmlns="http://www.w3.org/2000/svg" xmlns:xlink="http://www.w3.org/1999/xlink" xml:space="preserve" xmlns:serif="http://www.serif.com/" style="fill-rule:evenodd;clip-rule:evenodd;stroke-linejoin:round;stroke-miterlimit:1.41421;">
    <g transform="matrix(1,0,0,1,0,-75)">
        <g id="star_normal" transform="matrix(0.911392,0,0,1.30909,41.0127,78.2819)">
            <rect x="-45" y="-2" width="79" height="55" style="fill:none;"/>
            <clipPath id="_clip1">
                <rect x="-45" y="-2" width="79" height="55"/>
            </clipPath>
            <g clip-path="url(#_clip1)">
                <g transform="matrix(1.33977,0,0,0.98075,-64.4497,-15.7305)">
                    <path d="M44,14L50.96,35.42L73.483,35.42L55.261,48.659L62.221,70.08L44,56.841L25.779,70.08L32.739,48.659L14.517,35.42L37.04,35.42L44,14Z" style="fill:rgb(235,235,235);"/>
                </g>
                <g transform="matrix(1.25708,0,0,0.917804,-60.9362,-13.0697)">
                    <path d="M44.216,12.064C45.012,12.185 45.568,12.421 45.956,13.425L52.47,33.473L73.483,33.473C73.483,33.473 75.031,33.697 75.422,34.797C75.695,35.565 75.383,36.437 74.726,36.968L57.639,49.382L64.177,69.505C64.177,69.505 64.42,70.542 63.856,71.252C63.206,72.071 61.889,72.219 60.978,71.627L44,59.291L27.022,71.627C27.022,71.627 23.025,72.51 23.823,69.505L30.361,49.382L13.274,36.968C13.274,36.968 11.306,33.632 14.517,33.473L35.53,33.473L42.044,13.425C42.044,13.425 42.802,11.992 44.216,12.064ZM44.508,54.955C44.856,55.058 44.942,55.097 45.243,55.294L58.374,64.834L53.305,49.234C53.305,49.234 53.108,47.846 54.019,47.112L67.43,37.368L50.96,37.368C50.96,37.368 49.442,37.127 49.004,35.995L44,20.595L38.996,35.995C38.996,35.995 38.473,37.295 37.04,37.368L20.57,37.368L33.981,47.112C33.981,47.112 35.031,47.975 34.695,49.234L29.626,64.834L42.757,55.294C42.757,55.294 43.755,54.809 44.508,54.955Z" style="fill:rgb(128,128,128);fill-rule:nonzero;"/>
                </g>
            </g>
        </g>
    </g>
</svg>
